<svg version="1.1" id="Layer_1" xmlns="http://www.w3.org/2000/svg" xmlns:xlink="http://www.w3.org/1999/xlink" x="0px" y="0px"
	 width="100%" viewBox="0 0 2100 1500" enable-background="new 0 0 2100 1500" xml:space="preserve">
<path fill="#FFFFFF" opacity="1.000000" stroke="none" 
	d="
M1269.000000,1501.000000 
	C846.000000,1501.000000 423.500000,1501.000000 1.000000,1501.000000 
	C1.000000,1001.000000 1.000000,501.000000 1.000000,1.000000 
	C701.000000,1.000000 1401.000000,1.000000 2101.000000,1.000000 
	C2101.000000,501.000000 2101.000000,1001.000000 2101.000000,1501.000000 
	C1823.833374,1501.000000 1546.666626,1501.000000 1269.000000,1501.000000 
M305.466156,922.934326 
	C390.075836,923.619995 474.685547,924.306702 559.295410,924.970276 
	C559.824158,924.974426 560.355408,924.657776 561.111694,924.419800 
	C557.484436,919.140747 554.101135,914.205872 550.706848,909.278564 
	C512.778137,854.220276 474.847809,799.163208 437.022736,743.557678 
	C437.013885,743.371826 437.005066,743.186035 437.384003,742.452393 
	C479.907074,682.874756 522.430176,623.297119 565.884338,562.414917 
	C545.163025,562.414917 525.889282,562.492859 506.616394,562.398743 
	C465.955780,562.200134 425.295685,561.908203 384.635315,561.660889 
	C359.480194,561.507935 334.325012,561.366638 308.514160,561.353394 
	C304.600891,566.717041 300.671173,572.068787 296.776886,577.446228 
	C261.521973,626.127441 226.254944,674.799988 191.046997,723.515198 
	C186.903732,729.247986 183.095200,735.222717 179.219223,741.750671 
	C210.100983,786.330261 240.959076,830.926208 271.877228,875.480530 
	C282.773712,891.182861 293.817139,906.783264 305.466156,922.934326 
M1089.106079,911.380066 
	C1090.588867,915.899658 1092.071777,920.419189 1093.574829,925.000549 
	C1111.790649,925.000549 1129.614014,924.927795 1147.435669,925.069092 
	C1150.562134,925.093872 1150.737305,923.298462 1151.313354,921.101990 
	C1160.545288,885.898193 1169.837280,850.710144 1179.131836,815.522766 
	C1181.792358,805.450745 1184.504028,795.392212 1187.192139,785.327454 
	C1187.484253,785.354858 1187.776367,785.382202 1188.068481,785.409607 
	C1200.526978,831.887817 1212.985474,878.366028 1225.434204,924.807861 
	C1244.478638,924.807861 1263.098511,924.807861 1281.738281,924.807861 
	C1300.365723,866.814636 1318.938843,808.990295 1337.418213,751.458008 
	C1346.791138,751.458008 1355.534668,751.458008 1364.670898,751.458008 
	C1364.670898,753.599609 1364.670898,755.403564 1364.670898,757.207520 
	C1364.670898,791.538391 1364.591187,825.869507 1364.727539,860.199829 
	C1364.761230,868.677124 1365.180786,877.181213 1365.970703,885.621704 
	C1368.139404,908.798218 1378.942261,921.889282 1401.527466,927.410950 
	C1409.814087,929.436768 1418.660645,929.928284 1427.237915,929.836060 
	C1441.089966,929.687012 1454.613770,927.047729 1467.690918,921.243164 
	C1466.032959,906.151428 1464.393311,891.225952 1462.731812,876.102722 
	C1458.954102,877.247742 1455.655762,878.380798 1452.286255,879.231934 
	C1448.747192,880.125793 1445.168091,880.955933 1441.556763,881.452087 
	C1431.680786,882.808716 1424.676147,877.159058 1423.760010,867.281799 
	C1423.576050,865.297852 1423.350708,863.306885 1423.345703,861.318665 
	C1423.254272,825.325073 1423.192017,789.331482 1423.140991,753.337830 
	C1423.140137,752.718445 1423.355469,752.098755 1423.564941,750.964600 
	C1436.741821,750.964600 1449.789185,750.964600 1462.772095,750.964600 
	C1462.772095,735.294250 1462.772095,720.183105 1462.772095,704.507935 
	C1449.490356,704.507935 1436.429321,704.507935 1422.906006,704.507935 
	C1422.906006,678.420532 1422.906006,652.896667 1422.906006,626.750549 
	C1403.763916,637.892334 1385.224976,648.621887 1366.803223,659.548889 
	C1365.627930,660.245972 1364.800537,662.461121 1364.764404,663.992493 
	C1364.567993,672.320557 1364.670898,680.655762 1364.670898,688.988464 
	C1364.670776,694.085876 1364.670898,699.183350 1364.670898,704.671021 
	C1362.144165,704.671021 1360.341187,704.671021 1358.538208,704.671021 
	C1339.039673,704.671021 1319.539185,704.810181 1300.043945,704.557922 
	C1295.961426,704.505127 1294.317749,705.701782 1293.200073,709.601074 
	C1282.900635,745.533264 1272.396606,781.406799 1261.938354,817.293335 
	C1259.024780,827.291443 1256.065796,837.276367 1252.728638,848.624451 
	C1240.296631,799.763000 1228.236084,752.361633 1216.101929,704.671021 
	C1198.642578,704.671021 1181.497925,704.787964 1164.357300,704.578491 
	C1160.652466,704.533203 1159.297119,705.683289 1158.373657,709.256592 
	C1149.018433,745.456360 1139.454224,781.602051 1129.941406,817.761047 
	C1127.379028,827.500977 1124.792114,837.234436 1122.216431,846.970886 
	C1121.906372,846.951660 1121.596191,846.932373 1121.286011,846.913086 
	C1107.719482,799.489136 1094.153076,752.065186 1080.687256,704.993103 
	C1061.395386,704.993103 1042.822632,704.993103 1023.880798,704.993103 
	C1045.650635,773.794128 1067.293823,842.194885 1089.106079,911.380066 
M1839.165161,929.266907 
	C1870.533936,933.123352 1897.284790,923.068176 1920.167114,901.278931 
	C1922.453247,908.616028 1924.537598,914.925659 1926.355469,921.311096 
	C1927.176147,924.194214 1928.617188,925.132324 1931.659668,925.081787 
	C1943.488037,924.885132 1955.321655,925.001709 1967.153320,925.001709 
	C1973.066772,925.001709 1978.980225,925.001709 1984.890991,925.001709 
	C1981.853027,916.226196 1977.919556,908.139465 1976.373169,899.619446 
	C1974.128174,887.250366 1972.736206,874.583801 1972.517212,862.017334 
	C1971.931152,828.399475 1972.554932,794.759399 1971.878174,761.144653 
	C1971.606323,747.644104 1968.992065,734.256042 1959.129639,723.689148 
	C1951.351318,715.354980 1941.908325,709.590088 1931.184326,705.949829 
	C1917.156128,701.187988 1902.562744,700.046570 1887.886841,699.716797 
	C1869.518433,699.304077 1851.261108,700.039368 1833.609985,705.928162 
	C1806.350098,715.022705 1792.425415,735.620911 1784.590088,762.351624 
	C1802.639771,765.605103 1820.081787,768.749084 1837.428833,771.875916 
	C1839.129761,768.238892 1840.541504,764.875671 1842.236206,761.661682 
	C1847.149658,752.343628 1854.855713,746.099548 1865.292236,745.385193 
	C1875.473999,744.688232 1885.884521,745.123413 1896.012085,746.452637 
	C1906.742432,747.861023 1912.888306,755.180054 1914.745361,765.794983 
	C1915.372803,769.381470 1915.200195,773.101624 1915.698486,776.718689 
	C1916.179810,780.212708 1914.714233,781.948608 1911.471802,782.767090 
	C1898.108276,786.140625 1884.758057,789.566284 1871.408325,792.994141 
	C1853.408691,797.615784 1834.965942,800.992493 1817.517700,807.173767 
	C1788.099121,817.595825 1774.710327,845.417358 1779.523438,875.721497 
	C1784.290527,905.734741 1807.231079,926.024170 1839.165161,929.266907 
M833.267639,900.234619 
	C835.424988,902.066040 837.487305,904.025330 839.754272,905.709229 
	C863.086609,923.040039 889.493408,930.658691 918.337769,929.960205 
	C956.171082,929.043884 986.403381,913.264771 1008.161133,882.240723 
	C1025.944458,856.883545 1030.597290,828.229187 1027.123047,798.009216 
	C1022.771362,760.159241 1003.944458,731.562439 970.721252,712.952209 
	C946.982910,699.655090 921.072815,697.188416 894.655945,701.062012 
	C859.711487,706.186035 832.342590,723.184448 815.135986,754.850586 
	C800.964661,780.930725 798.041992,808.758850 802.450684,837.675171 
	C806.083557,861.503662 815.155029,882.717773 833.267639,900.234619 
M706.105713,699.667908 
	C674.788696,698.412537 649.944458,711.218384 629.552979,734.703491 
	C629.552979,724.804626 629.552979,714.905762 629.552979,705.047852 
	C611.214111,705.047852 593.337830,705.047852 575.553955,705.047852 
	C575.553955,778.523987 575.553955,851.601501 575.553955,924.631470 
	C595.065735,924.631470 614.279236,924.631470 633.741943,924.631470 
	C633.741943,922.448364 633.742004,920.634399 633.742004,918.820435 
	C633.742004,886.163879 633.535583,853.505371 633.848145,820.851807 
	C633.965698,808.567383 634.786316,796.237671 636.173096,784.029358 
	C638.417908,764.269226 651.456604,750.209595 670.815430,745.532349 
	C693.568115,740.035034 712.951416,751.898315 715.757263,773.517029 
	C717.039001,783.392639 717.730835,793.409546 717.789368,803.367676 
	C718.016479,842.021057 717.881836,880.676514 717.881836,919.331238 
	C717.881836,921.105530 717.881836,922.879822 717.881836,924.635742 
	C737.601685,924.635742 756.806885,924.635742 776.118164,924.635742 
	C776.118164,879.118164 776.176453,833.967041 776.070251,788.816284 
	C776.048340,779.504272 775.797668,770.160217 774.988220,760.888916 
	C772.658569,734.205688 760.209900,714.445618 734.222900,705.337402 
	C725.562195,702.301819 716.100342,701.552246 706.105713,699.667908 
M1711.065430,704.426575 
	C1692.176880,699.209656 1672.970215,698.266602 1653.660034,700.938538 
	C1617.173462,705.987183 1590.171997,724.767273 1576.234009,759.104187 
	C1561.869507,794.491577 1561.801392,831.044800 1574.761108,866.888306 
	C1586.116455,898.294250 1608.924683,918.252563 1641.419189,926.525269 
	C1659.740234,931.189453 1678.328735,931.014404 1696.926758,928.063843 
	C1737.101074,921.690125 1765.109131,894.491150 1773.673828,850.153748 
	C1754.753662,846.950745 1735.842041,843.749146 1716.846313,840.533325 
	C1715.739624,844.772766 1714.953979,848.333252 1713.878174,851.803833 
	C1709.867920,864.741150 1703.281860,875.609680 1689.478516,879.964905 
	C1666.333496,887.267456 1639.318115,878.474060 1631.035034,849.855347 
	C1624.434814,827.051331 1624.047974,803.803528 1629.384521,780.745544 
	C1634.532471,758.502686 1649.749390,746.635315 1672.503540,745.689148 
	C1692.903931,744.840881 1706.904419,755.016968 1712.311035,774.631042 
	C1712.788818,776.364075 1713.221191,778.109558 1713.766357,780.201599 
	C1732.996704,776.719971 1752.017700,773.276306 1771.251099,769.794128 
	C1761.569824,738.289307 1744.551880,714.311951 1711.065430,704.426575 
M148.326691,916.491272 
	C148.326691,764.095520 148.326691,611.699768 148.326691,459.224823 
	C129.945435,459.224823 112.076370,459.224823 94.233688,459.224823 
	C94.233688,615.618652 94.233688,771.672852 94.233688,927.784119 
	C112.353836,927.784119 130.238556,927.784119 148.326736,927.784119 
	C148.326736,924.132812 148.326736,920.811035 148.326691,916.491272 
M2009.000000,683.500000 
	C2009.000000,763.887329 2009.000000,844.274719 2009.000000,924.678711 
	C2028.725098,924.678711 2047.945923,924.678711 2067.051270,924.678711 
	C2067.051270,823.328674 2067.051270,722.300049 2067.051270,621.235596 
	C2047.578491,621.235596 2028.383301,621.235596 2009.000000,621.235596 
	C2009.000000,641.890198 2009.000000,662.195068 2009.000000,683.500000 
M1493.517822,924.999878 
	C1508.976685,924.999878 1524.435425,924.999878 1539.994141,924.999878 
	C1539.994141,851.373962 1539.994141,778.183167 1539.994141,704.902954 
	C1520.579834,704.902954 1501.498901,704.902954 1482.297852,704.902954 
	C1482.297852,778.340210 1482.297852,851.547424 1482.297852,924.999878 
	C1485.903687,924.999878 1489.213867,924.999878 1493.517822,924.999878 
M1540.203491,673.737183 
	C1540.203491,656.267029 1540.203491,638.796875 1540.203491,621.164673 
	C1520.744507,621.164673 1501.525635,621.164673 1482.207520,621.164673 
	C1482.207520,639.042053 1482.207520,656.635498 1482.207520,674.412415 
	C1483.012329,674.538452 1483.640137,674.724365 1484.267090,674.722107 
	C1502.753662,674.657043 1521.240234,674.573242 1540.203491,673.737183 
z"/>
<path fill="#303030" opacity="1.000000" stroke="none" 
	d="
M1089.021484,910.987793 
	C1067.293823,842.194885 1045.650635,773.794128 1023.880798,704.993103 
	C1042.822632,704.993103 1061.395386,704.993103 1080.687256,704.993103 
	C1094.153076,752.065186 1107.719482,799.489136 1121.286011,846.913086 
	C1121.596191,846.932373 1121.906372,846.951660 1122.216431,846.970886 
	C1124.792114,837.234436 1127.379028,827.500977 1129.941406,817.761047 
	C1139.454224,781.602051 1149.018433,745.456360 1158.373657,709.256592 
	C1159.297119,705.683289 1160.652466,704.533203 1164.357300,704.578491 
	C1181.497925,704.787964 1198.642578,704.671021 1216.101929,704.671021 
	C1228.236084,752.361633 1240.296631,799.763000 1252.728638,848.624451 
	C1256.065796,837.276367 1259.024780,827.291443 1261.938354,817.293335 
	C1272.396606,781.406799 1282.900635,745.533264 1293.200073,709.601074 
	C1294.317749,705.701782 1295.961426,704.505127 1300.043945,704.557922 
	C1319.539185,704.810181 1339.039673,704.671021 1358.538208,704.671021 
	C1360.341187,704.671021 1362.144165,704.671021 1364.670898,704.671021 
	C1364.670898,699.183350 1364.670776,694.085876 1364.670898,688.988464 
	C1364.670898,680.655762 1364.567993,672.320557 1364.764404,663.992493 
	C1364.800537,662.461121 1365.627930,660.245972 1366.803223,659.548889 
	C1385.224976,648.621887 1403.763916,637.892334 1422.906006,626.750549 
	C1422.906006,652.896667 1422.906006,678.420532 1422.906006,704.507935 
	C1436.429321,704.507935 1449.490356,704.507935 1462.772095,704.507935 
	C1462.772095,720.183105 1462.772095,735.294250 1462.772095,750.964600 
	C1449.789185,750.964600 1436.741821,750.964600 1423.564941,750.964600 
	C1423.355469,752.098755 1423.140137,752.718445 1423.140991,753.337830 
	C1423.192017,789.331482 1423.254272,825.325073 1423.345703,861.318665 
	C1423.350708,863.306885 1423.576050,865.297852 1423.760010,867.281799 
	C1424.676147,877.159058 1431.680786,882.808716 1441.556763,881.452087 
	C1445.168091,880.955933 1448.747192,880.125793 1452.286255,879.231934 
	C1455.655762,878.380798 1458.954102,877.247742 1462.731812,876.102722 
	C1464.393311,891.225952 1466.032959,906.151428 1467.690918,921.243164 
	C1454.613770,927.047729 1441.089966,929.687012 1427.237915,929.836060 
	C1418.660645,929.928284 1409.814087,929.436768 1401.527466,927.410950 
	C1378.942261,921.889282 1368.139404,908.798218 1365.970703,885.621704 
	C1365.180786,877.181213 1364.761230,868.677124 1364.727539,860.199829 
	C1364.591187,825.869507 1364.670898,791.538391 1364.670898,757.207520 
	C1364.670898,755.403564 1364.670898,753.599609 1364.670898,751.458008 
	C1355.534668,751.458008 1346.791138,751.458008 1337.418213,751.458008 
	C1318.938843,808.990295 1300.365723,866.814636 1281.738281,924.807861 
	C1263.098511,924.807861 1244.478638,924.807861 1225.434204,924.807861 
	C1212.985474,878.366028 1200.526978,831.887817 1188.068481,785.409607 
	C1187.776367,785.382202 1187.484253,785.354858 1187.192139,785.327454 
	C1184.504028,795.392212 1181.792358,805.450745 1179.131836,815.522766 
	C1169.837280,850.710144 1160.545288,885.898193 1151.313354,921.101990 
	C1150.737305,923.298462 1150.562134,925.093872 1147.435669,925.069092 
	C1129.614014,924.927795 1111.790649,925.000549 1093.574829,925.000549 
	C1092.071777,920.419189 1090.588867,915.899658 1089.021484,910.987793 
z"/>
<path fill="#303030" opacity="1.000000" stroke="none" 
	d="
M1838.720703,929.213135 
	C1807.231079,926.024170 1784.290527,905.734741 1779.523438,875.721497 
	C1774.710327,845.417358 1788.099121,817.595825 1817.517700,807.173767 
	C1834.965942,800.992493 1853.408691,797.615784 1871.408325,792.994141 
	C1884.758057,789.566284 1898.108276,786.140625 1911.471802,782.767090 
	C1914.714233,781.948608 1916.179810,780.212708 1915.698486,776.718689 
	C1915.200195,773.101624 1915.372803,769.381470 1914.745361,765.794983 
	C1912.888306,755.180054 1906.742432,747.861023 1896.012085,746.452637 
	C1885.884521,745.123413 1875.473999,744.688232 1865.292236,745.385193 
	C1854.855713,746.099548 1847.149658,752.343628 1842.236206,761.661682 
	C1840.541504,764.875671 1839.129761,768.238892 1837.428833,771.875916 
	C1820.081787,768.749084 1802.639771,765.605103 1784.590088,762.351624 
	C1792.425415,735.620911 1806.350098,715.022705 1833.609985,705.928162 
	C1851.261108,700.039368 1869.518433,699.304077 1887.886841,699.716797 
	C1902.562744,700.046570 1917.156128,701.187988 1931.184326,705.949829 
	C1941.908325,709.590088 1951.351318,715.354980 1959.129639,723.689148 
	C1968.992065,734.256042 1971.606323,747.644104 1971.878174,761.144653 
	C1972.554932,794.759399 1971.931152,828.399475 1972.517212,862.017334 
	C1972.736206,874.583801 1974.128174,887.250366 1976.373169,899.619446 
	C1977.919556,908.139465 1981.853027,916.226196 1984.890991,925.001709 
	C1978.980225,925.001709 1973.066772,925.001709 1967.153320,925.001709 
	C1955.321655,925.001709 1943.488037,924.885132 1931.659668,925.081787 
	C1928.617188,925.132324 1927.176147,924.194214 1926.355469,921.311096 
	C1924.537598,914.925659 1922.453247,908.616028 1920.167114,901.278931 
	C1897.284790,923.068176 1870.533936,933.123352 1838.720703,929.213135 
M1913.698486,819.965698 
	C1906.950317,821.690247 1900.197388,823.396362 1893.454956,825.143372 
	C1880.458862,828.510742 1867.141479,830.988220 1854.552734,835.497009 
	C1835.834717,842.200989 1831.184570,862.570068 1844.193848,877.672546 
	C1853.273193,888.212708 1865.036865,890.376892 1878.183716,887.970093 
	C1900.053589,883.966309 1913.735962,868.767761 1914.984131,846.675903 
	C1915.405518,839.214539 1915.523682,831.733093 1915.620361,824.258789 
	C1915.639526,822.772461 1914.927979,821.276733 1913.698486,819.965698 
z"/>
<path fill="#303030" opacity="1.000000" stroke="none" 
	d="
M833.004150,899.996277 
	C815.155029,882.717773 806.083557,861.503662 802.450684,837.675171 
	C798.041992,808.758850 800.964661,780.930725 815.135986,754.850586 
	C832.342590,723.184448 859.711487,706.186035 894.655945,701.062012 
	C921.072815,697.188416 946.982910,699.655090 970.721252,712.952209 
	C1003.944458,731.562439 1022.771362,760.159241 1027.123047,798.009216 
	C1030.597290,828.229187 1025.944458,856.883545 1008.161133,882.240723 
	C986.403381,913.264771 956.171082,929.043884 918.337769,929.960205 
	C889.493408,930.658691 863.086609,923.040039 839.754272,905.709229 
	C837.487305,904.025330 835.424988,902.066040 833.004150,899.996277 
M880.795715,869.735596 
	C907.470337,892.084717 945.201233,884.475464 960.243652,853.031067 
	C970.678711,831.217834 970.537109,808.156677 963.865967,785.299316 
	C957.139893,762.254089 937.654297,747.447510 915.109375,747.115845 
	C892.531250,746.783813 872.833862,761.031067 865.119446,783.754456 
	C859.717285,799.666504 859.346069,816.030273 861.864990,832.551392 
	C864.037170,846.798401 869.490234,859.346313 880.795715,869.735596 
z"/>
<path fill="#303030" opacity="1.000000" stroke="none" 
	d="
M706.555176,699.712769 
	C716.100342,701.552246 725.562195,702.301819 734.222900,705.337402 
	C760.209900,714.445618 772.658569,734.205688 774.988220,760.888916 
	C775.797668,770.160217 776.048340,779.504272 776.070251,788.816284 
	C776.176453,833.967041 776.118164,879.118164 776.118164,924.635742 
	C756.806885,924.635742 737.601685,924.635742 717.881836,924.635742 
	C717.881836,922.879822 717.881836,921.105530 717.881836,919.331238 
	C717.881836,880.676514 718.016479,842.021057 717.789368,803.367676 
	C717.730835,793.409546 717.039001,783.392639 715.757263,773.517029 
	C712.951416,751.898315 693.568115,740.035034 670.815430,745.532349 
	C651.456604,750.209595 638.417908,764.269226 636.173096,784.029358 
	C634.786316,796.237671 633.965698,808.567383 633.848145,820.851807 
	C633.535583,853.505371 633.742004,886.163879 633.742004,918.820435 
	C633.742004,920.634399 633.741943,922.448364 633.741943,924.631470 
	C614.279236,924.631470 595.065735,924.631470 575.553955,924.631470 
	C575.553955,851.601501 575.553955,778.523987 575.553955,705.047852 
	C593.337830,705.047852 611.214111,705.047852 629.552979,705.047852 
	C629.552979,714.905762 629.552979,724.804626 629.552979,734.703491 
	C649.944458,711.218384 674.788696,698.412537 706.555176,699.712769 
z"/>
<path fill="#303030" opacity="1.000000" stroke="none" 
	d="
M1711.438477,704.582397 
	C1744.551880,714.311951 1761.569824,738.289307 1771.251099,769.794128 
	C1752.017700,773.276306 1732.996704,776.719971 1713.766357,780.201599 
	C1713.221191,778.109558 1712.788818,776.364075 1712.311035,774.631042 
	C1706.904419,755.016968 1692.903931,744.840881 1672.503540,745.689148 
	C1649.749390,746.635315 1634.532471,758.502686 1629.384521,780.745544 
	C1624.047974,803.803528 1624.434814,827.051331 1631.035034,849.855347 
	C1639.318115,878.474060 1666.333496,887.267456 1689.478516,879.964905 
	C1703.281860,875.609680 1709.867920,864.741150 1713.878174,851.803833 
	C1714.953979,848.333252 1715.739624,844.772766 1716.846313,840.533325 
	C1735.842041,843.749146 1754.753662,846.950745 1773.673828,850.153748 
	C1765.109131,894.491150 1737.101074,921.690125 1696.926758,928.063843 
	C1678.328735,931.014404 1659.740234,931.189453 1641.419189,926.525269 
	C1608.924683,918.252563 1586.116455,898.294250 1574.761108,866.888306 
	C1561.801392,831.044800 1561.869507,794.491577 1576.234009,759.104187 
	C1590.171997,724.767273 1617.173462,705.987183 1653.660034,700.938538 
	C1672.970215,698.266602 1692.176880,699.209656 1711.438477,704.582397 
z"/>
<path fill="#2F2F2F" opacity="1.000000" stroke="none" 
	d="
M148.326721,916.990234 
	C148.326736,920.811035 148.326736,924.132812 148.326736,927.784119 
	C130.238556,927.784119 112.353836,927.784119 94.233688,927.784119 
	C94.233688,771.672852 94.233688,615.618652 94.233688,459.224823 
	C112.076370,459.224823 129.945435,459.224823 148.326691,459.224823 
	C148.326691,611.699768 148.326691,764.095520 148.326721,916.990234 
z"/>
<path fill="#6BD7FF" opacity="1.000000" stroke="none" 
	d="
M179.131500,741.085327 
	C183.095200,735.222717 186.903732,729.247986 191.046997,723.515198 
	C226.254944,674.799988 261.521973,626.127441 296.776886,577.446228 
	C300.671173,572.068787 304.600891,566.717041 308.993103,561.565613 
	C310.937531,563.794861 312.439270,565.786682 313.863281,567.832642 
	C351.280426,621.591980 388.668396,675.371643 426.136383,729.095581 
	C429.495636,733.912292 433.364227,738.373779 436.996277,743.000244 
	C437.005066,743.186035 437.013885,743.371826 436.757385,743.795288 
	C436.492035,744.032959 436.062256,744.074768 435.591248,744.033081 
	C413.336121,743.672668 391.552002,743.354431 369.767853,743.034729 
	C349.315674,742.734619 328.864319,742.344543 308.411102,742.150391 
	C265.318420,741.741211 222.224777,741.434204 179.131500,741.085327 
z"/>
<path fill="#04B6F8" opacity="1.000000" stroke="none" 
	d="
M437.190125,742.726318 
	C433.364227,738.373779 429.495636,733.912292 426.136383,729.095581 
	C388.668396,675.371643 351.280426,621.591980 313.863281,567.832642 
	C312.439270,565.786682 310.937531,563.794861 309.320923,561.498962 
	C334.325012,561.366638 359.480194,561.507935 384.635315,561.660889 
	C425.295685,561.908203 465.955780,562.200134 506.616394,562.398743 
	C525.889282,562.492859 545.163025,562.414917 565.884338,562.414917 
	C522.430176,623.297119 479.907074,682.874756 437.190125,742.726318 
z"/>
<path fill="#03B6F8" opacity="1.000000" stroke="none" 
	d="
M179.175369,741.417969 
	C222.224777,741.434204 265.318420,741.741211 308.411102,742.150391 
	C328.864319,742.344543 349.315674,742.734619 369.767853,743.034729 
	C391.552002,743.354431 413.336121,743.672668 435.430603,744.326416 
	C402.033478,790.618652 368.353027,836.595825 334.601868,882.521057 
	C324.769287,895.900208 314.735168,909.131226 304.793457,922.430176 
	C293.817139,906.783264 282.773712,891.182861 271.877228,875.480530 
	C240.959076,830.926208 210.100983,786.330261 179.175369,741.417969 
z"/>
<path fill="#035599" opacity="1.000000" stroke="none" 
	d="
M305.129791,922.682251 
	C314.735168,909.131226 324.769287,895.900208 334.601868,882.521057 
	C368.353027,836.595825 402.033478,790.618652 435.901581,744.368042 
	C436.062256,744.074768 436.492035,744.032959 436.704956,744.069397 
	C474.847809,799.163208 512.778137,854.220276 550.706848,909.278564 
	C554.101135,914.205872 557.484436,919.140747 561.111694,924.419800 
	C560.355408,924.657776 559.824158,924.974426 559.295410,924.970276 
	C474.685547,924.306702 390.075836,923.619995 305.129791,922.682251 
z"/>
<path fill="#2F2F2F" opacity="1.000000" stroke="none" 
	d="
M2009.000000,683.000000 
	C2009.000000,662.195068 2009.000000,641.890198 2009.000000,621.235596 
	C2028.383301,621.235596 2047.578491,621.235596 2067.051270,621.235596 
	C2067.051270,722.300049 2067.051270,823.328674 2067.051270,924.678711 
	C2047.945923,924.678711 2028.725098,924.678711 2009.000000,924.678711 
	C2009.000000,844.274719 2009.000000,763.887329 2009.000000,683.000000 
z"/>
<path fill="#2F2F2F" opacity="1.000000" stroke="none" 
	d="
M1493.020996,924.999878 
	C1489.213867,924.999878 1485.903687,924.999878 1482.297852,924.999878 
	C1482.297852,851.547424 1482.297852,778.340210 1482.297852,704.902954 
	C1501.498901,704.902954 1520.579834,704.902954 1539.994141,704.902954 
	C1539.994141,778.183167 1539.994141,851.373962 1539.994141,924.999878 
	C1524.435425,924.999878 1508.976685,924.999878 1493.020996,924.999878 
z"/>
<path fill="#303030" opacity="1.000000" stroke="none" 
	d="
M1539.965088,674.114807 
	C1521.240234,674.573242 1502.753662,674.657043 1484.267090,674.722107 
	C1483.640137,674.724365 1483.012329,674.538452 1482.207520,674.412415 
	C1482.207520,656.635498 1482.207520,639.042053 1482.207520,621.164673 
	C1501.525635,621.164673 1520.744507,621.164673 1540.203491,621.164673 
	C1540.203491,638.796875 1540.203491,656.267029 1539.965088,674.114807 
z"/>
<path fill="#FDFDFD" opacity="1.000000" stroke="none" 
	d="
M1914.125977,819.875488 
	C1914.927979,821.276733 1915.639526,822.772461 1915.620361,824.258789 
	C1915.523682,831.733093 1915.405518,839.214539 1914.984131,846.675903 
	C1913.735962,868.767761 1900.053589,883.966309 1878.183716,887.970093 
	C1865.036865,890.376892 1853.273193,888.212708 1844.193848,877.672546 
	C1831.184570,862.570068 1835.834717,842.200989 1854.552734,835.497009 
	C1867.141479,830.988220 1880.458862,828.510742 1893.454956,825.143372 
	C1900.197388,823.396362 1906.950317,821.690247 1914.125977,819.875488 
z"/>
<path fill="#FEFEFE" opacity="1.000000" stroke="none" 
	d="
M880.536377,869.490234 
	C869.490234,859.346313 864.037170,846.798401 861.864990,832.551392 
	C859.346069,816.030273 859.717285,799.666504 865.119446,783.754456 
	C872.833862,761.031067 892.531250,746.783813 915.109375,747.115845 
	C937.654297,747.447510 957.139893,762.254089 963.865967,785.299316 
	C970.537109,808.156677 970.678711,831.217834 960.243652,853.031067 
	C945.201233,884.475464 907.470337,892.084717 880.536377,869.490234 
z"/>
</svg>